# xmcd
#
# Track frame offsets:
#	150
#	15152
#	29192
#	44333
#	65422
#	76016
#	88826
#	101424
#	114240
#	122824
#	134552
#	151635
#	165932
#	177006
#	191738
#	205083
#	217812
#	238937
#	266274
#
# Disc length: 3748 seconds
#
# Revision: 1
# Processed by: cddbd v1.4PL0 Copyright (c) Steve Scherf et al.
# Submitted via: EasyCDDAExtractor 5.0.7
#
DISCID=ef0ea213
DTITLE=Dr. John - The Essential Recordings
DYEAR=2001
DGENRE=Blues
TTITLE0=Tipitina
TTITLE1=She's Just a Square
TTITLE2=Zu Zu Man
TTITLE3=Mean Cheatin' Woman
TTITLE4=One Night Late
TTITLE5=In the Night
TTITLE6=Did She Mention My Name
TTITLE7=Grass Looks Greener Yonder
TTITLE8=New Orleans
TTITLE9=Bald Head
TTITLE10=Time Had Come
TTITLE11=Loser for You Baby
TTITLE12=Ear Is on Strike
TTITLE13=Little Closer to My Home
TTITLE14=I Pulled the Cover off You Two Lovers
TTITLE15=Go Ahead On
TTITLE16=Just Like a Mirror
TTITLE17=Bring Your Love
TTITLE18=Make Your Own
EXTD=
EXTT0=
EXTT1=
EXTT2=
EXTT3=
EXTT4=
EXTT5=
EXTT6=
EXTT7=
EXTT8=
EXTT9=
EXTT10=
EXTT11=
EXTT12=
EXTT13=
EXTT14=
EXTT15=
EXTT16=
EXTT17=
EXTT18=
PLAYORDER=
